HIERARCHY
ROOT Hips
{
    OFFSET 0.000000 0.000000 0.000000
    CHANNELS 6 Xposition Yposition Zposition Zrotation Xrotation Yrotation
    JOINT Spine
    {
        OFFSET -0.000000 14.517291 0.000000
        CHANNELS 3 Zrotation Xrotation Yrotation
        JOINT Spine1
        {
            OFFSET -0.000000 37.558300 0.000000
            CHANNELS 3 Zrotation Xrotation Yrotation
            JOINT Neck
            {
                OFFSET -0.000000 37.404057 3.400369
                CHANNELS 3 Zrotation Xrotation Yrotation
                JOINT Head
                {
                    OFFSET -0.000000 24.785618 -3.540803
                    CHANNELS 3 Zrotation Xrotation Yrotation
                    End Site
                    {
                        OFFSET -0.000000 35.408028 0.000000
                    }
                }
            }
            JOINT LeftShoulder
            {
                OFFSET 6.992933 33.973492 -0.192664
                CHANNELS 3 Zrotation Xrotation Yrotation
                JOINT LeftArm
                {
                    OFFSET 21.527611 0.000000 0.000000
                    CHANNELS 3 Zrotation Xrotation Yrotation
                    JOINT LeftForeArm
                    {
                        OFFSET 56.353916 0.000000 0.000000
                        CHANNELS 3 Zrotation Xrotation Yrotation
                        JOINT LeftHand
                        {
                            OFFSET 47.774071 0.000000 0.000000
                            CHANNELS 3 Zrotation Xrotation Yrotation
                            End Site
                            {
                                OFFSET 26.556021 0.000000 0.000000
                            }
                        }
                    }
                }
            }
            JOINT RightShoulder
            {
                OFFSET -7.065357 33.973492 -0.192664
                CHANNELS 3 Zrotation Xrotation Yrotation
                JOINT RightArm
                {
                    OFFSET -21.527611 0.000000 0.000000
                    CHANNELS 3 Zrotation Xrotation Yrotation
                    JOINT RightForeArm
                    {
                        OFFSET -56.353916 0.000000 0.000000
                        CHANNELS 3 Zrotation Xrotation Yrotation
                        JOINT RightHand
                        {
                            OFFSET -47.774071 0.000000 0.000000
                            CHANNELS 3 Zrotation Xrotation Yrotation
                            End Site
                            {
                                OFFSET -26.556021 0.000000 0.000000
                            }
                        }
                    }
                }
            }
        }
    }
    JOINT LeftUpLeg
    {
        OFFSET 17.704014 0.000000 0.000000
        CHANNELS 3 Zrotation Xrotation Yrotation
        JOINT LeftLeg
        {
            OFFSET -0.000000 -81.181816 0.000000
            CHANNELS 3 Zrotation Xrotation Yrotation
            JOINT LeftFoot
            {
                OFFSET -0.000000 -62.821102 0.000000
                CHANNELS 3 Zrotation Xrotation Yrotation
                JOINT LeftToeBase
                {
                    OFFSET -0.000000 -11.507608 26.556021
                    CHANNELS 3 Zrotation Xrotation Yrotation
                    End Site
                    {
                        OFFSET -0.000000 0.000000 7.081605
                    }
                }
            }
        }
    }
    JOINT RightUpLeg
    {
        OFFSET -17.704014 0.000000 0.000000
        CHANNELS 3 Zrotation Xrotation Yrotation
        JOINT RightLeg
        {
            OFFSET -0.000000 -81.181816 0.000000
            CHANNELS 3 Zrotation Xrotation Yrotation
            JOINT RightFoot
            {
                OFFSET -0.000000 -62.821102 0.000000
                CHANNELS 3 Zrotation Xrotation Yrotation
                JOINT RightToeBase
                {
                    OFFSET -0.000000 -11.507608 26.556021
                    CHANNELS 3 Zrotation Xrotation Yrotation
                    End Site
                    {
                        OFFSET -0.000000 0.000000 7.081605
                    }
                }
            }
        }
    }
}
MOTION
Frames:    10
Frame Time:    0.008333
-6.227457    121.521881    -26.345730    2.956495    4.893819    -4.972964    -2.554817    8.819445    8.652254    -1.948798    -2.367090    2.778139    2.151530    -0.843773    -4.315859    6.359206    -9.267933    -3.419734    -0.800199    6.281155    -7.423290    -43.424549    16.887005    -34.576820    4.116108    -33.113182    -126.415848    -11.313690    -24.522842    -16.549364    -2.225915    9.355811    3.094282    35.585537    8.350945    59.347130    -23.143572    -24.841879    60.615494    10.300762    -8.462173    36.276421    13.252662    -58.437855    -3.338928    -68.752167    67.524605    26.393135    17.130835    -23.382139    40.245594    0.000000    0.000000    0.000000    -24.492832    -14.526678    -12.242136    105.902657    81.634224    -101.930725    23.752806    -36.039383    10.088317    0.000000    0.000000    0.000000    
-6.244696    121.517029    -26.329699    2.959001    4.891252    -4.976029    -2.562762    8.822659    8.634807    -1.934554    -2.370817    2.772321    2.137370    -0.879315    -4.297245    6.354986    -9.198002    -3.403501    -0.812630    6.274890    -7.434518    -43.427158    16.768717    -34.590023    4.051228    -32.962406    -126.442650    -11.240450    -24.487904    -16.488672    -2.235258    9.348003    3.100363    35.583477    8.353047    59.348061    -23.137165    -24.837818    60.607666    10.311166    -8.460273    36.278088    13.278249    -58.426575    -3.299820    -68.766426    67.526199    26.391907    17.154133    -23.380960    40.262241    0.000000    0.000000    0.000000    -24.521975    -14.499904    -12.251844    105.811440    81.614487    -101.771111    23.732273    -36.051224    10.094844    0.000000    0.000000    0.000000    
-6.258818    121.505943    -26.307667    2.958694    4.887988    -4.975234    -2.546361    8.818102    8.614312    -1.945965    -2.361737    2.765876    2.131037    -0.909373    -4.277791    6.340384    -9.140343    -3.389149    -0.814005    6.277554    -7.431718    -43.412914    16.747204    -34.614040    4.054446    -32.961708    -126.434654    -11.234706    -24.483976    -16.483732    -2.248323    9.351796    3.092421    35.596298    8.354922    59.373535    -23.140011    -24.837795    60.592190    10.311508    -8.462970    36.274624    13.298786    -58.423183    -3.275702    -68.826920    67.543724    26.425306    17.167618    -23.393253    40.268528    0.000000    0.000000    0.000000    -24.543095    -14.469919    -12.254314    105.730209    81.605858    -101.651390    23.731339    -36.038906    10.126728    0.000000    0.000000    0.000000    
-6.271023    121.488251    -26.288101    2.956737    4.885510    -4.966444    -2.535349    8.820170    8.590683    -1.944107    -2.368972    2.758183    2.111867    -0.919508    -4.266001    6.343062    -9.095781    -3.375834    -0.829488    6.269803    -7.437310    -43.395714    16.765018    -34.619862    4.083491    -33.004864    -126.410164    -11.241483    -24.479633    -16.497974    -2.258017    9.357719    3.093284    35.586620    8.365187    59.383705    -23.162039    -24.858070    60.576912    10.288251    -8.485676    36.252575    13.307559    -58.427235    -3.274614    -68.899071    67.548721    26.479349    17.194460    -23.387753    40.280865    0.000000    0.000000    0.000000    -24.558714    -14.440080    -12.242510    105.679916    81.584427    -101.535095    23.748440    -36.062550    10.155893    0.000000    0.000000    0.000000    
-6.289169    121.466469    -26.271788    2.951753    4.888116    -4.956143    -2.518261    8.807283    8.567437    -1.954349    -2.357911    2.750949    2.109487    -0.932706    -4.265061    6.331748    -9.058744    -3.379215    -0.824095    6.281640    -7.431758    -43.382267    16.752205    -34.661976    4.102850    -33.007450    -126.382370    -11.248472    -24.449341    -16.514912    -2.254951    9.350941    3.098334    35.583866    8.376883    59.381554    -23.195379    -24.886257    60.556049    10.324977    -8.489144    36.259132    13.324425    -58.440941    -3.264797    -68.976357    67.569313    26.524296    17.208946    -23.400154    40.295853    0.000000    0.000000    0.000000    -24.567833    -14.417291    -12.218772    105.631203    81.539764    -101.418777    23.742365    -36.091068    10.153869    0.000000    0.000000    0.000000    
-6.307638    121.438286    -26.259106    2.947121    4.891969    -4.946476    -2.500379    8.796572    8.545849    -1.964302    -2.346475    2.744264    2.106468    -0.941437    -4.257763    6.318694    -9.033354    -3.375518    -0.821135    6.278059    -7.437271    -43.403797    16.744209    -34.724091    4.124640    -33.033241    -126.360687    -11.289997    -24.437685    -16.495920    -2.256543    9.350695    3.097994    35.582985    8.381297    59.387695    -23.220121    -24.920595    60.551266    10.354846    -8.504021    36.249210    13.351443    -58.456921    -3.273923    -69.082191    67.554749    26.615141    17.226831    -23.407532    40.289913    0.000000    0.000000    0.000000    -24.568911    -14.405977    -12.211961    105.729355    81.512344    -101.463249    23.702744    -36.127243    10.106172    0.000000    0.000000    0.000000    
-6.330456    121.405243    -26.242203    2.942444    4.895124    -4.940571    -2.495974    8.785678    8.531631    -1.964896    -2.336643    2.739896    2.105719    -0.940783    -4.258532    6.314613    -9.023441    -3.377616    -0.813119    6.282440    -7.430682    -43.408894    16.726000    -34.765057    4.119507    -33.000713    -126.360123    -11.268919    -24.415226    -16.486931    -2.246673    9.349566    3.074321    35.574730    8.385996    59.403656    -23.219688    -24.943291    60.561222    10.364349    -8.522247    36.258957    13.382198    -58.474861    -3.271147    -69.213699    67.552971    26.760181    17.249363    -23.420403    40.270039    0.000000    0.000000    0.000000    -24.568020    -14.395440    -12.212186    105.894341    81.484512    -101.573059    23.666748    -36.172642    10.058443    0.000000    0.000000    0.000000    
-6.352425    121.367523    -26.230038    2.939461    4.897470    -4.932743    -2.483299    8.789676    8.515849    -1.979033    -2.346222    2.734466    2.085233    -0.962809    -4.264431    6.332189    -8.973714    -3.379760    -0.805470    6.290298    -7.432263    -43.388962    16.743916    -34.795452    4.126047    -33.021393    -126.358536    -11.229243    -24.432907    -16.469582    -2.249645    9.340481    3.070110    35.601913    8.378218    59.390560    -23.199242    -24.944979    60.598511    10.400700    -8.516182    36.241238    13.403093    -58.501461    -3.274901    -69.349419    67.569130    26.847298    17.277733    -23.422527    40.299625    0.000000    0.000000    0.000000    -24.565929    -14.387594    -12.234574    106.134979    81.479347    -101.799324    23.658609    -36.210629    10.056770    0.000000    0.000000    0.000000    
-6.374640    121.325974    -26.216278    2.938184    4.897095    -4.923312    -2.480250    8.782169    8.502396    -1.975663    -2.336598    2.730362    2.072526    -0.966132    -4.270238    6.329165    -8.953628    -3.385597    -0.805095    6.297273    -7.429460    -43.379711    16.766676    -34.831688    4.122629    -33.031548    -126.358009    -11.209874    -24.453098    -16.465864    -2.252304    9.331865    3.062807    35.603134    8.380153    59.386375    -23.207878    -24.959902    60.613384    10.407205    -8.522876    36.221764    13.400105    -58.525963    -3.278411    -69.455826    67.607613    26.957573    17.291185    -23.451117    40.292503    0.000000    0.000000    0.000000    -24.563032    -14.380279    -12.254345    106.424713    81.475616    -102.113091    23.676502    -36.225231    10.092252    0.000000    0.000000    0.000000    
-6.399343    121.280846    -26.204294    2.941287    4.901571    -4.918067    -2.489557    8.768812    8.494141    -1.965644    -2.324528    2.727877    2.057478    -0.950218    -4.283147    6.334301    -8.965130    -3.394639    -0.803590    6.275447    -7.450782    -43.392288    16.764408    -34.817577    4.102619    -33.001099    -126.384491    -11.168941    -24.459892    -16.440342    -2.259392    9.317038    3.045354    35.635822    8.359840    59.381989    -23.155964    -24.945391    60.660801    10.436904    -8.517954    36.202713    13.411768    -58.556446    -3.273574    -69.592308    67.631187    27.076565    17.296833    -23.471834    40.323380    0.000000    0.000000    0.000000    -24.562675    -14.383513    -12.287861    106.811668    81.483292    -102.516998    23.679407    -36.249897    10.102923    0.000000    0.000000    0.000000    
